<svg id="Layer_1" data-name="Layer 1" xmlns="http://www.w3.org/2000/svg" viewBox="0 0 600.89 492.73"><defs><style>.cls-1,.cls-8{fill:none;}.cls-2{fill:#fff;}.cls-3{fill:#b66726;}.cls-4{fill:#ffe23a;}.cls-5{fill:#ba180d;}.cls-6{fill:#00ff06;}.cls-7{fill:#7d7c7c;}.cls-8{stroke:#000;stroke-miterlimit:10;}</style></defs><title>lungs_areas_with_extended_lines_v3-COLORED</title><path class="cls-1" d="M352.6,260.54c0,51.52,0,105.07-.06,140.84H497.75c0-26.65-.07-82-.09-140.84Z" transform="translate(-124.7 -73.75)"/><path class="cls-2" d="M222.29,323.16h69.37V80.35q-2.46,1.07-5,2.32c-24.61,9.62-46.21,28.85-64.49,51.94h.16Z" transform="translate(-124.7 -73.75)"/><path class="cls-3" d="M222.29,323.66V493.19c22.48.08,48.71.17,69.37.2V323.66Z" transform="translate(-124.7 -73.75)"/><path class="cls-3" d="M292.16,493.39h11c40.87,0,49.33-49.81,49.33-49.81s0-16.3,0-41.7H292.16Z" transform="translate(-124.7 -73.75)"/><path class="cls-4" d="M221.79,135.05c-31.85,40.42-53.53,92.54-63.22,125.81h63.22Z" transform="translate(-124.7 -73.75)"/><path class="cls-5" d="M352.6,260c0-76,.07-147.48.07-150.56,0-6.44-9.56-51-60.51-29.34V260Z" transform="translate(-124.7 -73.75)"/><path class="cls-5" d="M292.16,260.54V401.38h60.38c0-35.77,0-89.32.06-140.84Z" transform="translate(-124.7 -73.75)"/><path class="cls-6" d="M291.66,566.48h.5V493.39h-.5Z" transform="translate(-124.7 -73.75)"/><path class="cls-6" d="M292.16,79.71h-.5v.64l.5-.21Z" transform="translate(-124.7 -73.75)"/><path class="cls-6" d="M291.91,401.88v-.5h.25V260.54h-.25V260h.25V80.14l-.5.21V323.16h.25v.5h-.25V493.39h.5V401.88Z" transform="translate(-124.7 -73.75)"/><path class="cls-6" d="M221.79,134.61v.44l.34-.44Z" transform="translate(-124.7 -73.75)"/><path class="cls-6" d="M221.79,566.48h.5V493.19h-.5Z" transform="translate(-124.7 -73.75)"/><path class="cls-6" d="M222,323.66v-.5h.25V134.61h-.16l-.34.44V260.86H222v.5h-.25V400.61H222v.5h-.25v92.08h.5V323.66Z" transform="translate(-124.7 -73.75)"/><path class="cls-6" d="M158.5,261.11" transform="translate(-124.7 -73.75)"/><path class="cls-6" d="M158.57,260.86" transform="translate(-124.7 -73.75)"/><path class="cls-6" d="M158.43,261.36h63.36v-.5H158.57c0,.09,0,.17-.07.25" transform="translate(-124.7 -73.75)"/><rect class="cls-6" x="97.09" y="187.11" width="0.25" height="0.5"/><path class="cls-5" d="M126.2,443.25c6.1,42.38,39.23,49.77,48.31,49.77,4.24,0,23.64.08,47.28.17V401.11H126.88C125,417.36,124.57,431.92,126.2,443.25Z" transform="translate(-124.7 -73.75)"/><path class="cls-7" d="M158.5,261.36v-.25c-11.09,38.22-26.44,95.09-31.56,139.5h94.85V261.36Z" transform="translate(-124.7 -73.75)"/><path class="cls-6" d="M126.55,400.61l-.13.5h.46l.06-.5Z" transform="translate(-124.7 -73.75)"/><path class="cls-6" d="M126.88,401.11h94.91v-.5H126.94Z" transform="translate(-124.7 -73.75)"/><rect class="cls-6" x="97.09" y="326.86" width="0.25" height="0.5"/><rect class="cls-6" x="97.59" y="249.41" width="69.37" height="0.5"/><rect class="cls-6" x="166.96" y="249.41" width="0.25" height="0.5"/><rect class="cls-6" x="97.34" y="249.41" width="0.25" height="0.5"/><path class="cls-5" d="M497.75,401.88v2.55c0,2.14,0,39.15,0,39.15s8.46,49.81,49.33,49.81h13.06v-91.5Z" transform="translate(-124.7 -73.75)"/><path class="cls-5" d="M560.16,81c-52.73-23.7-62.54,21.94-62.54,28.46,0,40.34,0,96.88,0,150.56h62.5Z" transform="translate(-124.7 -73.75)"/><path class="cls-3" d="M560.66,323.66V493.38c21,0,47.17-.11,69.37-.2V323.66Z" transform="translate(-124.7 -73.75)"/><path class="cls-7" d="M630.53,400.61h92.82c-5.11-44.32-20.4-101-31.49-139.25H630.53Z" transform="translate(-124.7 -73.75)"/><path class="cls-4" d="M630.53,493.18c22.72-.08,41.14-.16,45.25-.16,9.08,0,42.21-7.39,48.31-49.77,1.63-11.33,1.17-25.89-.68-42.14H630.53Z" transform="translate(-124.7 -73.75)"/><path class="cls-5" d="M497.75,401.38h62.41V260.54h-62.5C497.68,319.41,497.71,374.73,497.75,401.38Z" transform="translate(-124.7 -73.75)"/><path class="cls-2" d="M630,323.16V137c-18.66-24.16-40.9-44.38-66.35-54.33-1-.5-2-1-3-1.42V323.16Z" transform="translate(-124.7 -73.75)"/><path class="cls-2" d="M691.72,260.86c-9.49-32.55-30.45-83.17-61.19-123.21V260.86Z" transform="translate(-124.7 -73.75)"/><path class="cls-6" d="M525.91,261h34.25v-1H446.42v1Z" transform="translate(-124.7 -73.75)"/><path class="cls-6" d="M292.16,260.53H399V260H292.16Z" transform="translate(-124.7 -73.75)"/><rect class="cls-6" x="167.21" y="186.29" width="0.25" height="0.5"/><path class="cls-6" d="M560.16,401.38H446.42v.45H560.16Z" transform="translate(-124.7 -73.75)"/><path class="cls-6" d="M292.16,401.38V402H399v-.57Z" transform="translate(-124.7 -73.75)"/><rect class="cls-6" x="167.21" y="327.63" width="0.25" height="0.5"/><polygon class="cls-6" points="435.71 252.8 435.71 252.3 435.96 252.3 435.96 10.38 435.96 7.49 435.46 7.27 435.46 10.15 435.46 189.18 435.46 189.68 435.46 330.52 435.46 331.02 435.46 422.52 435.46 492.73 435.96 492.73 435.96 422.52 435.96 252.8 435.71 252.8"/><polygon class="cls-6" points="505.58 327.36 505.58 326.86 505.83 326.86 505.83 187.61 505.58 187.61 505.58 187.11 505.83 187.11 505.83 63.89 505.83 63.89 505.33 63.24 505.33 63.24 505.33 249.41 505.58 249.41 505.58 249.91 505.33 249.91 505.33 419.43 505.33 492.73 505.83 492.73 505.83 419.43 505.83 327.36 505.58 327.36"/><polygon class="cls-6" points="505.58 187.11 505.58 187.61 505.83 187.61 567.16 187.61 567.16 187.61 567.02 187.11 567.02 187.11 505.83 187.11 505.58 187.11"/><polygon class="cls-6" points="598.65 326.86 598.65 326.86 505.83 326.86 505.58 326.86 505.58 327.36 505.83 327.36 598.71 327.36 598.71 327.36 598.65 326.86"/><polygon class="cls-6" points="435.71 249.41 435.71 249.91 435.96 249.91 505.33 249.91 505.58 249.91 505.58 249.41 505.33 249.41 435.96 249.41 435.71 249.41"/><g id="Layer_2" data-name="Layer 2"><path class="cls-8" d="M352.67,109.49c0,6.67-.15,334.1-.15,334.1s-8.46,49.81-49.33,49.81S183.59,493,174.51,493s-42.21-7.39-48.31-49.77,17.1-129.77,32.3-182.14S218.77,109.2,286.62,82.68C342.43,55.3,352.67,102.82,352.67,109.49Z" transform="translate(-124.7 -73.75)"/><path class="cls-8" d="M497.62,109.49c0,6.67.15,334.1.15,334.1s8.46,49.81,49.33,49.81S666.7,493,675.78,493s42.21-7.39,48.31-49.77S707,313.48,691.79,261.12,631.52,109.19,563.68,82.67C507.86,55.3,497.62,102.82,497.62,109.49Z" transform="translate(-124.7 -73.75)"/></g></svg>